:FULLY-SPECIFIED
:DEGREES
1042
root 3.65458 16.2709 -3.4632 218.16 -93.6621 -213.163
lowerback 1.49376 1.15787 1.93093
upperback 1.28424 1.54635 0.799227
thorax 0.507326 0.777542 -0.27877
lowerneck -17.9424 -0.945345 -1.04386
upperneck 17.5283 -1.46358 1.85561
head 8.43627 -0.586213 0.612127
rclavicle -4.77083e-015 -2.72087e-014
rhumerus -25.9254 1.19878 -85.0876
rradius 24.1082
rwrist 25.7897
rhand -26.466 1.83462
rfingers 7.12502
rthumb 0.0956246 -28.1451
lclavicle -4.77083e-015 -2.72087e-014
lhumerus -28.9945 7.25502 87.3352
lradius 18.9011
lwrist -17.8266
lhand -25.2588 1.48732
lfingers 7.12502
lthumb 1.26161 31.4633
rfemur 12.0511 10.2616 31.2845
rtibia -6.36111e-015
rfoot -12.1375 -15.8548
rtoes -7.79026
lfemur -32.9051 -12.8674 -15.4924
ltibia 25.0512
lfoot -8.09259 3.93015
ltoes -16.7072
1043
root 3.63992 16.2478 -3.44448 219.297 -93.6318 -214.451
lowerback 1.51833 1.16014 1.85106
upperback 1.28352 1.54927 0.807189
thorax 0.490467 0.77829 -0.226585
lowerneck -17.9063 -0.975892 -1.06255
upperneck 17.6481 -1.52127 1.9281
head 8.47215 -0.607789 0.632557
rclavicle -1.35174e-014 -1.55797e-014
rhumerus -26.165 1.17547 -85.1063
rradius 24.0583
rwrist 25.8759
rhand -26.4548 2.04431
rfingers 7.12502
rthumb 0.106477 -27.9354
lclavicle -1.35174e-014 -1.55797e-014
lhumerus -28.989 7.52611 87.2025
lradius 18.5301
lwrist -18.1618
lhand -25.3297 1.69289
lfingers 7.12502
lthumb 1.19313 31.6693
rfemur 12.7201 10.0837 31.426
rtibia -3.18055e-015
rfoot -12.1949 -15.908
rtoes -8.54778
lfemur -32.4505 -13.0579 -15.6007
ltibia 25.8823
lfoot -8.17081 3.97164
ltoes -15.6111
1044
root 3.6232 16.2459 -3.42307 220.329 -93.5725 -215.525
lowerback 1.3671 1.17004 1.84111
upperback 1.2808 1.5595 0.755604
thorax 0.573702 0.784485 -0.270446
lowerneck -17.8665 -1.02547 -1.11989
upperneck 17.7594 -1.61908 2.11298
head 8.50669 -0.639086 0.692282
rclavicle 3.97569e-015 -1.26725e-014
rhumerus -26.3907 1.08985 -85.2083
rradius 23.9754
rwrist 25.8826
rhand -26.5696 2.0286
rfingers 7.12502
rthumb -0.00443872 -27.9511
lclavicle 3.97569e-015 -1.26725e-014
lhumerus -28.9532 8.31286 86.7953
lradius 18.0779
lwrist -19.2696
lhand -25.1072 1.68356
lfingers 7.12502
lthumb 1.40806 31.6587
rfemur 13.2612 9.94629 31.4691
rtibia 0
rfoot -12.2996 -15.8923
rtoes -9.27861
lfemur -32.2878 -13.2194 -15.7008
ltibia 26.5047
lfoot -7.65055 4.04172
ltoes -15.7165
1045
root 3.60682 16.2494 -3.40368 221.639 -93.5632 -216.885
lowerback 1.30346 1.18261 1.78395
upperback 1.26045 1.57476 0.777821
thorax 0.586571 0.791699 -0.214707
lowerneck -17.8031 -1.06834 -1.27605
upperneck 17.7889 -1.67925 2.3037
head 8.50963 -0.65881 0.775012
rclavicle 3.97569e-015 -1.25731e-014
rhumerus -26.6168 1.01206 -85.1912
rradius 23.9225
rwrist 25.9747
rhand -26.4086 1.92762
rfingers 7.12502
rthumb 0.151084 -28.0521
lclavicle 3.97569e-015 -1.25731e-014
lhumerus -28.9565 8.93477 86.5813
lradius 17.7206
lwrist -19.9009
lhand -24.9625 1.62006
lfingers 7.12502
lthumb 1.5478 31.5942
rfemur 13.7876 9.78115 31.5576
rtibia 0
rfoot -12.3071 -15.7922
rtoes -9.97026
lfemur -32.2748 -13.1867 -15.773
ltibia 26.9066
lfoot -7.15108 4.41747
ltoes -18.2895
1046
root 3.58661 16.251 -3.38522 221.115 -93.3896 -216.376
lowerback 1.12968 1.21881 1.54829
upperback 1.24907 1.61941 0.694476
thorax 0.668683 0.813715 -0.164534
lowerneck -17.776 -1.11228 -1.26934
upperneck 17.856 -1.77247 2.42862
head 8.53074 -0.689688 0.804554
rclavicle 2.46493e-014 -9.64106e-015
rhumerus -26.8429 0.679101 -85.2147
rradius 23.7657
rwrist 26.0784
rhand -26.4169 2.07346
rfingers 7.12502
rthumb 0.143061 -27.9062
lclavicle 2.46493e-014 -9.64106e-015
lhumerus -28.9912 9.25231 86.379
lradius 17.4822
lwrist -20.2498
lhand -25.0092 1.8113
lfingers 7.12502
lthumb 1.50267 31.7858
rfemur 14.3126 9.66924 31.4408
rtibia -3.81667e-014
rfoot -12.2467 -15.7228
rtoes -10.8001
lfemur -32.1286 -13.3345 -15.9717
ltibia 27.1166
lfoot -6.58572 4.93971
ltoes -20.5039
1047
root 3.56408 16.252 -3.36352 219.558 -93.2173 -214.869
lowerback 1.01436 1.23859 1.29452
upperback 1.23502 1.64408 0.608249
thorax 0.714445 0.825199 -0.108377
lowerneck -17.77 -1.15559 -1.36676
upperneck 17.9588 -1.85115 2.61524
head 8.56912 -0.71407 0.873948
rclavicle 2.46493e-014 2.18663e-015
rhumerus -27.1265 0.428178 -85.2376
rradius 23.6208
rwrist 26.2234
rhand -26.5206 1.99028
rfingers 7.12502
rthumb 0.0429287 -27.9895
lclavicle 2.46493e-014 2.18663e-015
lhumerus -29.0372 9.70088 86.1424
lradius 17.2076
lwrist -20.6752
lhand -25.0442 1.92762
lfingers 7.12502
lthumb 1.4689 31.9023
rfemur 14.8838 9.51699 31.2789
rtibia -4.13472e-014
rfoot -12.13 -15.7055
rtoes -11.9885
lfemur -31.7732 -13.4639 -16.2656
ltibia 27.2521
lfoot -5.86561 4.76508
ltoes -19.9049
1048
root 3.53981 16.2559 -3.34435 217.678 -93.0062 -212.973
lowerback 0.797756 1.22606 0.957554
upperback 1.20444 1.6251 0.534324
thorax 0.796836 0.814225 0.00920123
lowerneck -17.717 -1.16809 -1.49274
upperneck 18.0201 -1.88154 2.81306
head 8.58449 -0.717081 0.95801
rclavicle -8.74653e-015 -3.47873e-015
rhumerus -27.3654 0.125618 -85.1854
rradius 23.3961
rwrist 26.9419
rhand -26.5098 2.0073
rfingers 7.12502
rthumb 0.0533268 -27.9724
lclavicle -8.74653e-015 -3.47873e-015
lhumerus -29.1682 10.3627 85.8179
lradius 16.9909
lwrist -21.1906
lhand -25.0755 1.84912
lfingers 7.12502
lthumb 1.43868 31.824
rfemur 15.3753 9.40668 31.0477
rtibia 6.36111e-015
rfoot -11.9927 -15.5733
rtoes -12.953
lfemur -31.4072 -13.4558 -16.6215
ltibia 27.4386
lfoot -5.3324 4.37338
ltoes -18.292
1049
root 3.51605 16.2637 -3.32282 215.002 -92.8205 -210.257
lowerback 0.612375 1.23444 0.670001
upperback 1.13413 1.63675 0.422888
thorax 0.823868 0.818893 0.0594719
lowerneck -17.6325 -1.18618 -1.54786
upperneck 18.0792 -1.93523 2.98896
head 8.59334 -0.728994 1.02015
rclavicle 3.18055e-015 -1.98785e-015
rhumerus -27.7107 -0.205318 -85.1834
rradius 23.1788
rwrist 27.2078
rhand -26.4949 2.11438
rfingers 7.12502
rthumb 0.0677965 -27.8654
lclavicle 3.18055e-015 -1.98785e-015
lhumerus -29.2986 10.9208 85.4649
lradius 16.6794
lwrist -21.8842
lhand -25.1968 1.82175
lfingers 7.12502
lthumb 1.32145 31.7974
rfemur 15.8343 9.27197 30.7792
rtibia 2.8625e-014
rfoot -11.6949 -15.3656
rtoes -14.0346
lfemur -30.9811 -13.2787 -17.0943
ltibia 27.6747
lfoot -5.49233 3.74112
ltoes -16.996
1050
root 3.49546 16.2774 -3.30267 212.212 -92.677 -207.323
lowerback 0.295552 1.25437 0.427362
upperback 1.07153 1.66398 0.294047
thorax 0.934276 0.831879 0.0702952
lowerneck -17.6685 -1.24445 -1.6445
upperneck 18.1971 -2.0505 3.24084
head 8.64684 -0.763149 1.10713
rclavicle -1.98785e-014 2.38542e-015
rhumerus -27.9611 -0.759934 -85.1458
rradius 22.9019
rwrist 27.5942
rhand -26.5649 1.99038
rfingers 7.12502
rthumb 0.000112499 -27.9894
lclavicle -1.98785e-014 2.38542e-015
lhumerus -29.3704 11.099 85.2633
lradius 16.528
lwrist -21.9705
lhand -25.1443 1.91402
lfingers 7.12502
lthumb 1.37217 31.8894
rfemur 16.1324 9.13259 30.5115
rtibia 6.36111e-015
rfoot -11.1919 -15.1594
rtoes -15.38
lfemur -30.7128 -13.1056 -17.5
ltibia 27.9116
lfoot -5.78696 3.36525
ltoes -16.4791
1051
root 3.47527 16.2947 -3.28087 207.437 -92.4917 -202.396
lowerback 0.0235939 1.26014 0.0642091
upperback 0.98609 1.67481 0.173037
thorax 0.992413 0.835361 0.155126
lowerneck -17.6033 -1.26497 -1.67802
upperneck 18.2354 -2.09808 3.35172
head 8.65126 -0.77728 1.14448
rclavicle 3.73715e-014 6.36111e-015
rhumerus -28.2646 -1.18314 -85.0816
rradius 22.6813
rwrist 27.7731
rhand -26.4288 1.9683
rfingers 7.12502
rthumb 0.131609 -28.0114
lclavicle 3.73715e-014 6.36111e-015
lhumerus -29.4928 11.5949 84.9695
lradius 16.3209
lwrist -22.5865
lhand -25.2755 1.88244
lfingers 7.12502
lthumb 1.24548 31.8586
rfemur 16.3969 9.00919 30.1106
rtibia -4.77083e-014
rfoot -10.6308 -14.8711
rtoes -16.669
lfemur -30.4436 -12.9656 -17.9756
ltibia 28.0678
lfoot -5.88567 3.35088
ltoes -15.8502
1052
root 3.45586 16.3101 -3.25979 206.042 -92.34 -200.872
lowerback -0.236266 1.25092 -0.113317
upperback 0.919327 1.66544 0.0810894
thorax 1.06742 0.829913 0.165688
lowerneck -17.7231 -1.28819 -1.76715
upperneck 18.4153 -2.15988 3.56084
head 8.73942 -0.788873 1.22273
rclavicle 2.3059e-014 6.36111e-015
rhumerus -28.5036 -1.6334 -85.0172
rradius 22.3732
rwrist 28.3763
rhand -26.4203 2.05645
rfingers 7.12502
rthumb 0.139781 -27.9232
lclavicle 2.3059e-014 6.36111e-015
lhumerus -29.6246 12.0242 84.6794
lradius 16.2328
lwrist -22.8498
lhand -25.2277 1.93125
lfingers 7.12502
lthumb 1.29167 31.9071
rfemur 16.617 8.93697 29.8823
rtibia -6.67916e-014
rfoot -9.81967 -14.5677
rtoes -18.0948
lfemur -30.105 -12.7518 -18.2592
ltibia 28.1228
lfoot -6.1012 3.13835
ltoes -15.4556
